<?xml version="1.0" encoding="UTF-8"?>
<!DOCTYPE svg PUBLIC "-//W3C//DTD SVG 1.1//EN" "http://www.w3.org/Graphics/SVG/1.1/DTD/svg11.dtd">
<svg version="1.1" xmlns="http://www.w3.org/2000/svg" xmlns:xlink="http://www.w3.org/1999/xlink" x="0" y="0" width="120" height="120" viewBox="0, 0, 120, 120">
  <g id="Calque_1">
    <path d="M0,-0 L30,-0 L30,30 L0,30 L0,-0 z" fill="#FF0000"/>
    <path d="M90,0 L120,0 L120,30 L90,30 L90,0 z" fill="#00FF00"/>
    <path d="M0,90 L30,90 L30,120 L0,120 L0,90 z" fill="#0000FF"/>
    <path d="M60,75 C51.716,75 45,68.284 45,60 C45,51.716 51.716,45 60,45 C68.284,45 75,51.716 75,60 C75,68.284 68.284,75 60,75 z" fill="#FFFF00"/>
  </g>
</svg>
